<?xml version="1.0" encoding="UTF-8" standalone="no"?>
<!DOCTYPE svg PUBLIC "-//W3C//DTD SVG 1.1//EN" "http://www.w3.org/Graphics/SVG/1.1/DTD/svg11.dtd">
<svg width="100%" height="100%" viewBox="0 0 512 512" version="1.1" xmlns="http://www.w3.org/2000/svg" xmlns:xlink="http://www.w3.org/1999/xlink" xml:space="preserve" xmlns:serif="http://www.serif.com/" style="fill-rule:evenodd;clip-rule:evenodd;stroke-linejoin:round;stroke-miterlimit:2;">
    <path d="M256,48C370.105,48 464,141.895 464,256C464,370.105 370.105,464 256,464C141.895,464 48,370.105 48,256C48,141.895 141.895,48 256,48ZM256,512C396.437,512 512,396.437 512,256C512,115.563 396.437,0 256,0C115.563,0 -0,115.563 0,256C0,396.437 115.563,512 256,512ZM369,209C378.4,199.6 378.4,184.4 369,175.1C359.6,165.8 344.4,165.7 335.1,175.1L224.1,286.1L177.1,239.1C167.7,229.7 152.5,229.7 143.2,239.1C133.9,248.5 133.8,263.7 143.2,273L207.2,337C216.6,346.4 231.8,346.4 241.1,337L369,209Z" style="fill-rule:nonzero;"/>
</svg>
